<svg xmlns="http://www.w3.org/2000/svg" width="15" height="16" viewBox="0 0 16 16"><title>Телефон копия 2</title><path d="M13.59 14.29s-.739 1.33-2.44 1.61c-1.7.27-3.22.05-5.159-1.55-1.937-1.6-4.741-5.32-4.904-7.62C.925 4.43.681 2.15 3.453.95l.794 4.3-.91.23s-1.126.4.295 2.36c1.421 1.96 4.241 5.54 4.241 5.54s.975 1.58 1.921-.63zm.604-2.38l-.08 1.28-3.672-1.51.866-.98zM6.312 4.26l-1.191.8L4.417.87l1.303.25zm1.772-1.23v1.55c.954 0 1.85.39 2.524 1.1a3.875 3.875 0 0 1 1.046 2.64h1.47c-.02-2.92-2.273-5.29-5.04-5.29zM8.154 0v1.4c3.387 0 6.487 3.27 6.508 6.85h1.333C15.974 3.82 12.352 0 8.154 0zm.947 6.18c-.563 0-1.019.47-1.019 1.07 0 .59.456 1.07 1.019 1.07.562 0 1.018-.48 1.018-1.07 0-.6-.456-1.07-1.018-1.07z" fill="#dbe6f6"/></svg>