<svg xmlns="http://www.w3.org/2000/svg" width="16" height="16" viewBox="0 0 17 16"><title>Телефон</title><path d="M14.429 14.294s-.788 1.327-2.602 1.602c-1.814.274-3.435.058-5.503-1.545-2.067-1.601-5.058-5.316-5.231-7.618C.92 4.432.66 2.147 3.617.953l.846 4.3-.971.231s-1.2.4.315 2.355c1.516 1.957 4.524 5.546 4.524 5.546s1.04 1.574 2.049-.632zm.645-2.385l-.086 1.276-3.917-1.506.924-.98zM6.666 4.257l-1.271.803-.75-4.185 1.39.249zm1.89-1.225v1.547c1.017 0 1.974.391 2.693 1.105a3.738 3.738 0 0 1 1.115 2.635h1.568c-.021-2.919-2.424-5.287-5.376-5.287zm.075-3.03v1.403c3.613 0 6.919 3.264 6.941 6.842h1.422C16.972 3.816 13.108.002 8.631.002zm1.01 6.173c-.6 0-1.086.479-1.086 1.071s.486 1.071 1.086 1.071c.599 0 1.086-.479 1.086-1.071s-.487-1.071-1.086-1.071z" fill="#31aeee"/></svg>