<svg xmlns="http://www.w3.org/2000/svg" width="18" height="202" viewBox="0 0 18 202"><svg xmlns:xlink="http://www.w3.org/1999/xlink" xmlns:svgjs="http://svgjs.com/svgjs" height="9" viewBox="0 0 18 9" width="18"><title>Стрелочка</title><path fill="#69a1f5" d="M1 0h16L9 8z"/></svg><svg xmlns:xlink="http://www.w3.org/1999/xlink" xmlns:svgjs="http://svgjs.com/svgjs" height="17" viewBox="0 0 9 17" width="9" y="9"><title>Стрелка</title><path fill="#569dff" d="M.6 13.4l5.9-6c.5-.6 1.5-.6 2.1 0 .5.6.5 1.6 0 2.2l-5.9 6c-.6.6-1.5.6-2.1 0S0 14 .6 13.4zm0-12c.6-.6 1.5-.6 2.1 0l5.9 6c.5.6.5 1.6 0 2.2-.6.6-1.6.6-2.1 0l-5.9-6C0 3 0 2 .6 1.4z"/></svg><svg xmlns:xlink="http://www.w3.org/1999/xlink" xmlns:svgjs="http://svgjs.com/svgjs" height="17" viewBox="0 0 13 17" width="13" y="26"><title>Стрелка</title><path fill="#3cabee" d="M1.5 7h8.28c.83 0 1.5.7 1.5 1.5s-.67 1.5-1.5 1.5H1.5C.67 10 0 9.3 0 8.5S.67 7 1.5 7zm3.09 6.4l5.87-6c.58-.6 1.52-.6 2.1 0s.58 1.6 0 2.2l-5.87 6c-.58.6-1.52.6-2.1 0s-.58-1.6 0-2.2zm0-12c.58-.6 1.52-.6 2.1 0l5.87 6c.58.6.58 1.6 0 2.2s-1.52.6-2.1 0l-5.87-6c-.58-.6-.58-1.6 0-2.2z"/></svg><svg xmlns:xlink="http://www.w3.org/1999/xlink" xmlns:svgjs="http://svgjs.com/svgjs" height="15" viewBox="0 0 15 15" width="15" y="43"><title>Телефон копия</title><path fill="#fff" d="M12.02 13.116s-.68 1.151-2.23 1.388-2.93.052-4.7-1.338S.76 8.554.61 6.558C.46 4.563.24 2.582 2.77 1.546l.72 3.729-.83.201s-1.02.346.27 2.042c1.3 1.696 3.87 4.809 3.87 4.809s.89 1.365 1.76-.548zm.55-2.069l-.07 1.107-3.35-1.306.79-.85zM5.38 4.411l-1.09.696-.64-3.629 1.19.216zM7 3.349v1.342a3.26 3.26 0 0 1 3.25 3.243h1.34a4.606 4.606 0 0 0-4.6-4.585zM7.06.722v1.215c3.09 0 5.92 2.832 5.94 5.935h1.21c-.02-3.843-3.32-7.15-7.15-7.15zm.86 5.352c-.51 0-.93.416-.93.93a.931.931 0 0 0 1.86 0c0-.514-.41-.93-.93-.93z"/></svg><svg xmlns:xlink="http://www.w3.org/1999/xlink" xmlns:svgjs="http://svgjs.com/svgjs" height="15" viewBox="0 0 15 15" width="15" y="58"><title>Телефон</title><path fill="#31aeee" d="M12.02 13.12s-.68 1.15-2.23 1.38c-1.55.24-2.93.05-4.7-1.34C3.32 11.78.76 8.55.61 6.56c-.15-2-.37-3.98 2.16-5.01l.72 3.72-.83.2s-1.02.35.27 2.05c1.3 1.69 3.87 4.81 3.87 4.81s.89 1.36 1.76-.55zm.55-2.07l-.07 1.1-3.35-1.3.79-.85zM5.38 4.41l-1.09.7-.64-3.63 1.19.21zM7 3.35v1.34c.87 0 1.68.34 2.3.96.61.61.94 1.42.95 2.28h1.34a4.603 4.603 0 0 0-4.6-4.58zM7.06.72v1.22c3.09 0 5.92 2.83 5.94 5.93h1.21C14.19 4.03 10.89.72 7.06.72zm.86 5.35c-.51 0-.93.42-.93.93 0 .52.42.93.93.93.52 0 .93-.41.93-.93 0-.51-.41-.93-.93-.93z"/></svg><svg xmlns:xlink="http://www.w3.org/1999/xlink" xmlns:svgjs="http://svgjs.com/svgjs" height="16" viewBox="0 0 16 16" width="16" y="73"><title>Телефон копия 2</title><path fill="#dde5f5" d="M13.59 14.3s-.74 1.3-2.44 1.6-3.22.1-5.16-1.5S1.25 9 1.09 6.7C.92 4.4.68 2.2 3.45 1l.8 4.2-.91.3s-1.13.4.29 2.3c1.42 2 4.24 5.6 4.24 5.6s.98 1.6 1.92-.6zm.6-2.4l-.08 1.3-3.67-1.5.87-1zM6.31 4.3l-1.19.8-.7-4.2 1.3.2zM8.08 3v1.6c.96 0 1.85.4 2.53 1.1.67.7 1.03 1.6 1.04 2.6h1.47C13.1 5.4 10.85 3 8.08 3zm.07-3v1.4c3.39 0 6.49 3.3 6.51 6.8H16C15.97 3.8 12.35 0 8.15 0zm.95 6.2c-.56 0-1.02.4-1.02 1s.46 1.1 1.02 1.1 1.02-.5 1.02-1.1-.46-1-1.02-1z"/></svg><svg xmlns:xlink="http://www.w3.org/1999/xlink" xmlns:svgjs="http://svgjs.com/svgjs" height="16" viewBox="0 0 16 16" width="16" y="89"><title>Факс</title><path fill="#43b9f6" d="M14.5 12.05h-1.39V7.88H3.95v4.17H2.31c-.77 0-1.39-.62-1.39-1.39V3.71c0-.76.62-1.39 1.39-1.39h1.64v1.39h9.16V2.32h1.39c.77 0 1.39.63 1.39 1.39v6.95c0 .77-.62 1.39-1.39 1.39zm.17-6.95H13v1.67h1.67zM5.03.05h6.94v2.9H5.03zm7.01 14.96H5V9.08h7.04zM9 11v-1H6v1zm2 2v-1H6v1z"/></svg><svg xmlns:xlink="http://www.w3.org/1999/xlink" xmlns:svgjs="http://svgjs.com/svgjs" height="16" viewBox="0 0 16 16" width="16" y="105"><title>Факс</title><path fill="#dde5f5" d="M14.5 12h-1.39V7.9H3.95V12H2.31c-.77 0-1.39-.6-1.39-1.3v-7c0-.7.62-1.4 1.39-1.4h1.64v1.4h9.16V2.3h1.39c.77 0 1.39.7 1.39 1.4v7c0 .7-.62 1.3-1.39 1.3zm.17-6.9H13v1.7h1.67zM5.03 0h6.94v3H5.03zm7.01 15H5V9.1h7.04zM9 11v-1H6v1zm2 2v-1H6v1z"/></svg><svg xmlns:xlink="http://www.w3.org/1999/xlink" xmlns:svgjs="http://svgjs.com/svgjs" height="16" viewBox="0 0 16 16" width="16" y="121"><title>Факс</title><path fill="#fff" d="M14.5 12.048h-1.39V7.881H3.95v4.167H2.31c-.77 0-1.39-.622-1.39-1.389V3.714c0-.767.62-1.388 1.39-1.388h1.64v1.388h9.16V2.326h1.39c.77 0 1.39.621 1.39 1.388v6.945c0 .767-.62 1.389-1.39 1.389zm.17-6.942H13v1.668h1.67zM5.03.048h6.94v2.903H5.03zm7.01 14.965H5v-5.93h7.04zM9 11v-1H6v1zm2 2v-1H6v1z"/></svg><svg xmlns:xlink="http://www.w3.org/1999/xlink" xmlns:svgjs="http://svgjs.com/svgjs" height="17" viewBox="0 0 15 17" width="15" y="137"><title>к форме заказа:</title><path fill="#dde5f5" d="M4.02 2.4l.01.1c0-.1.03-.6.39-.6.2.1 1.53 0 1.53 0 .07-.6.03-1 1.68-.9 1.11 0 1.33.2 1.34.6.01.7 1.21.3 1.54.3.32 0 .47.1.48.4s.02 1 0 1.3c-.01.3-.11.4-.61.4-.51 0-6.65 0-6.05-.1.59 0-.39.1-.38-.4.02-.5.04-1.5.07-1.1zm9.25-.4c.58 0 .69.7.7 1.4.01.8.07 10.8.06 11.8-.02 1-2.03.9-1.31.9.72-.1-10.19 0-10.84 0-.64-.1-1.02-.2-.99-1C.92 14.2.97 3.5 1 2.6c.02-.4.45-.5.75-.6.26 0 1.29.1 1.29.1l.01.9h-.79c-.46 0-.33.1-.29.6.04.4.1 10.2.03 10.8s.93.5.42.5c-.52 0 9.65.2 10.17 0 .52-.1.42-.3.45-.7s-.01-9.9.03-10.4-.2-.7-.48-.7c-.29 0-.65-.1-.65-.1l.05-1h1.28zM1.87 2h.06-.18.12zm.06 0c.15-.1.2-.1 0 0zm4.94.5c0 .4.29.7.64.7.36 0 .65-.3.65-.7 0-.3-.29-.6-.65-.6-.35 0-.64.3-.64.6zM3 14V5h9v9z"/></svg><svg xmlns:xlink="http://www.w3.org/1999/xlink" xmlns:svgjs="http://svgjs.com/svgjs" height="15" viewBox="0 0 16 15" width="16" y="154"><title>Адрес</title><path fill="#dde5f5" d="M16 12.8c0 1.4-2.18 2.2-7.93 2.2-4.38 0-7.93-.5-7.93-1.9 0-.9 1.74-1.6 4.27-2l.61.7c-3.17.3-2.91.8-2.91 1.2 0 .5.45.9 6.03.8 5.07 0 6.41-.5 6.41-.9s-1.01-1-3.4-1.2l.35-.7c2.66.3 4.5.8 4.5 1.8zm-5.95-1.1c-.68.9-1.4 1.4-2.05 1.4-.64 0-1.32-.5-1.98-1.3l-.61-.9c-1.21-2-2.17-4.6-2.17-6.1C3.24 2.3 5.49.2 8.05.2s4.71 2.1 4.71 4.6c0 1.3-.71 3.5-1.69 5.3h-.01l-.96 1.6h-.05zm.44-7.7h-.15c-.04 0-.08-.1-.12-.1H8.73c-.03 0-.04 0-.05-.1l-.36-1.2c-.02-.1-.04-.1-.06-.2-.06-.1-.18-.1-.29-.1s-.2 0-.27.1c-.03.1-.05.1-.06.2l-.31 1.2c0 .1-.02.1-.05.1H5.79c-.06 0-.11.1-.17.1h-.1c-.03.1-.05.1-.05.2s.04.1.07.2c.03 0 .06 0 .1.1l1.15.7c.02 0 .06.1.06.1l-.01.1-.52 1.5c-.01 0-.02.1-.02.1 0 .1 0 .1.04.2.05 0 .19.1.25.1.12 0 .17-.1.22-.1l1.15-.9h.05c.03 0 .12.1.13.1l1.18.8c.06 0 .11.1.23.1.06 0 .19-.1.23-.1.05-.1.05-.1.05-.2 0 0-.02-.1-.03-.1l-.58-1.6s.03-.1.05-.1l1.11-.7c.03-.1.06-.1.09-.1.03-.1.07-.1.07-.2s-.02-.1-.05-.2z"/></svg><svg xmlns:xlink="http://www.w3.org/1999/xlink" xmlns:svgjs="http://svgjs.com/svgjs" height="16" viewBox="0 0 17 16" width="17" y="169"><title>Почта</title><path fill="#dde5f5" d="M15.46 5.6h.01l-1.42-1.2L8.48.2C8.34 0 8.17 0 7.99 0c-.17 0-.34 0-.48.2L1.95 4.4c-.01.1-.02.1-.04.1L.53 5.6h.02C.22 5.8 0 6.2 0 6.7v8c0 .7.6 1.3 1.34 1.3h13.33c.74 0 1.33-.6 1.33-1.3v-8c0-.5-.21-.9-.54-1.1zm-.16 10h-.18l-1.58-1.5h-.02L8.54 9.3c-.15-.2-.35-.2-.54-.2-.2 0-.39 0-.55.2l-4.96 4.8h-.05L.9 15.6c-.06 0-.14 0-.19-.1-.05 0-.05-.1 0-.1l4.48-4.9L.84 6.6c-.05 0-.05-.1 0-.2h14.35c.05.1.04.2-.01.2l-4.39 4c.01 0 .02 0 .04-.1l4.48 4.9c.05 0 .04.1-.01.2z"/></svg><svg xmlns:xlink="http://www.w3.org/1999/xlink" xmlns:svgjs="http://svgjs.com/svgjs" height="17" viewBox="0 0 17 17" width="17" y="185"><title>Почта копия</title><path fill="#43b9f6" d="M15.46 6.6h.01l-1.42-1.15-5.57-4.29A.779.779 0 0 0 7.99 1a.77.77 0 0 0-.48.16L1.95 5.45c-.01.01-.02.02-.04.03L.53 6.6h.02C.22 6.84 0 7.22 0 7.67v7.99C0 16.4.6 17 1.34 17h13.33c.74 0 1.33-.6 1.33-1.34V7.67c0-.44-.21-.83-.54-1.07zm-.16 9.97c-.05.05-.13.04-.18 0l-1.58-1.46c0-.01-.01-.02-.02-.03l-4.98-4.8a.799.799 0 0 0-.54-.21c-.2 0-.39.07-.55.21l-4.96 4.8c-.02.01-.03.03-.05.05L.9 16.56c-.06.05-.14.04-.19-.01s-.05-.13 0-.18l4.48-4.84-4.35-3.9a.14.14 0 0 1 0-.19c.02-.02.05-.03.08-.04h14.17c.04 0 .07.01.1.05.05.05.04.13-.01.18l-4.4 3.95c.02-.01.03-.02.05-.03l4.48 4.83c.05.05.04.14-.01.19z"/></svg></svg>