<svg xmlns="http://www.w3.org/2000/svg" width="16" height="16" viewBox="0 0 17 17"><title>Почта копия</title><path d="M15.463 6.598l.007-.001-1.42-1.15-5.568-4.283a.799.799 0 0 0-.976 0L1.95 5.448c-.013.009-.023.021-.035.031v-.002L.532 6.595h.014c-.328.244-.544.63-.544 1.07v7.998c0 .738.598 1.335 1.336 1.335h13.33c.738 0 1.334-.597 1.334-1.335V7.665c0-.438-.213-.824-.539-1.067zm-.164 9.969a.133.133 0 0 1-.181 0l-1.573-1.458-.029-.03-4.974-4.798a.796.796 0 0 0-1.089 0l-4.967 4.798c-.016.014-.028.03-.043.046L.897 16.558a.133.133 0 0 1-.188-.008.133.133 0 0 1 0-.181l4.479-4.835L.845 7.629a.133.133 0 0 1-.004-.188.128.128 0 0 1 .081-.038L.919 7.4h14.169c.039 0 .077.014.103.047a.134.134 0 0 1-.01.181l-4.396 3.956.046-.036 4.476 4.83a.133.133 0 0 1-.008.189z" fill="#43b9f6"/></svg>