<svg id="SvgjsSvg1017" xmlns="http://www.w3.org/2000/svg" version="1.1" xmlns:xlink="http://www.w3.org/1999/xlink" xmlns:svgjs="http://svgjs.com/svgjs" width="15" height="16" viewBox="0 0 16 16"><title>Телефон копия 2</title><desc>Created with Avocode.</desc><defs id="SvgjsDefs1018"></defs><path id="SvgjsPath1019" d="M656.59 1897.29C656.59 1897.29 655.851 1898.62 654.15 1898.8999999999999C652.4499999999999 1899.1699999999998 650.93 1898.9499999999998 648.991 1897.35C647.054 1895.75 644.25 1892.03 644.087 1889.73C643.925 1887.43 643.681 1885.15 646.453 1883.95L647.247 1888.25L646.337 1888.48C646.337 1888.48 645.211 1888.88 646.632 1890.84C648.053 1892.8 650.8729999999999 1896.3799999999999 650.8729999999999 1896.3799999999999C650.8729999999999 1896.3799999999999 651.848 1897.9599999999998 652.794 1895.7499999999998ZM657.194 1894.91L657.1139999999999 1896.19L653.4419999999999 1894.68L654.3079999999999 1893.7ZM649.312 1887.26L648.121 1888.06L647.417 1883.87L648.72 1884.12ZM651.084 1886.03V1887.58C652.0379999999999 1887.58 652.934 1887.97 653.608 1888.6799999999998C654.275 1889.3899999999999 654.645 1890.32 654.654 1891.32H656.124C656.104 1888.3999999999999 653.851 1886.03 651.0840000000001 1886.03ZM651.154 1883V1884.4C654.5409999999999 1884.4 657.641 1887.67 657.662 1891.25H658.995C658.974 1886.82 655.352 1883 651.154 1883ZM652.101 1889.18C651.538 1889.18 651.082 1889.65 651.082 1890.25C651.082 1890.84 651.538 1891.32 652.101 1891.32C652.663 1891.32 653.119 1890.84 653.119 1890.25C653.119 1889.65 652.663 1889.18 652.101 1889.18Z " fill="#dbe6f6" fill-opacity="1" transform="matrix(1,0,0,1,-643,-1883)"></path></svg>