<svg id="SvgjsSvg1008" xmlns="http://www.w3.org/2000/svg" version="1.1" xmlns:xlink="http://www.w3.org/1999/xlink" xmlns:svgjs="http://svgjs.com/svgjs" width="16" height="16" viewBox="0 0 17 16"><title>Телефон</title><desc>Created with Avocode.</desc><defs id="SvgjsDefs1009"></defs><path id="SvgjsPath1010" d="M985.429 499.294C985.429 499.294 984.641 500.621 982.827 500.89599999999996C981.013 501.16999999999996 979.392 500.95399999999995 977.324 499.35099999999994C975.257 497.74999999999994 972.266 494.03499999999997 972.093 491.73299999999995C971.92 489.43199999999996 971.66 487.14699999999993 974.617 485.953L975.463 490.253L974.492 490.484C974.492 490.484 973.2919999999999 490.88399999999996 974.807 492.839C976.323 494.796 979.331 498.385 979.331 498.385C979.331 498.385 980.371 499.959 981.38 497.753ZM986.074 496.909L985.9879999999999 498.185L982.0709999999999 496.67900000000003L982.9949999999999 495.699ZM977.666 489.257L976.3950000000001 490.06L975.6450000000001 485.875L977.0350000000001 486.124ZM979.556 488.032V489.579C980.5730000000001 489.579 981.5300000000001 489.97 982.249 490.684C982.9590000000001 491.38800000000003 983.354 492.322 983.364 493.319H984.932C984.9110000000001 490.40000000000003 982.508 488.03200000000004 979.556 488.03200000000004ZM979.631 485.002V486.40500000000003C983.244 486.40500000000003 986.55 489.66900000000004 986.572 493.247H987.994C987.972 488.81600000000003 984.1080000000001 485.002 979.6310000000001 485.002ZM980.641 491.175C980.0409999999999 491.175 979.555 491.654 979.555 492.24600000000004C979.555 492.838 980.0409999999999 493.31700000000006 980.641 493.31700000000006C981.24 493.31700000000006 981.727 492.8380000000001 981.727 492.24600000000004C981.727 491.65400000000005 981.24 491.175 980.641 491.175Z " fill="#31aeee" fill-opacity="1" transform="matrix(1,0,0,1,-971,-485)"></path></svg>