<svg id="SvgjsSvg1020" xmlns="http://www.w3.org/2000/svg" version="1.1" xmlns:xlink="http://www.w3.org/1999/xlink" xmlns:svgjs="http://svgjs.com/svgjs" width="15" height="15" viewBox="0 0 16 16"><title>Факс</title><desc>Created with Avocode.</desc><defs id="SvgjsDefs1021"></defs><path id="SvgjsPath1022" d="M657.5 1977.05H656.111V1972.8799999999999H646.951V1977.05H645.312C644.545 1977.05 643.924 1976.4199999999998 643.924 1975.6599999999999V1968.7099999999998C643.924 1967.9499999999998 644.545 1967.3199999999997 645.312 1967.3199999999997H646.951V1968.7099999999998H656.111V1967.3199999999997H657.5C658.267 1967.3199999999997 658.889 1967.9499999999998 658.889 1968.7099999999998V1975.6599999999999C658.889 1976.4199999999998 658.267 1977.05 657.5 1977.05ZM657.669 1970.1H656V1971.77H657.669ZM648.028 1965.05H654.972V1967.95H648.028ZM655.035 1980.01H647.996V1974.08H655.035ZM652 1976V1975H649V1976ZM654 1978V1977H649V1978Z " fill="#dbe6f6" fill-opacity="1" transform="matrix(1,0,0,1,-643,-1965)"></path></svg>