<svg id="SvgjsSvg1026" xmlns="http://www.w3.org/2000/svg" version="1.1" xmlns:xlink="http://www.w3.org/1999/xlink" xmlns:svgjs="http://svgjs.com/svgjs" width="13" height="15" viewBox="0 0 15 17"><title>к форме заказа:</title><desc>Created with Avocode.</desc><defs id="SvgjsDefs1027"></defs><path id="SvgjsPath1028" d="M952.021 1940.41C952.0237 1940.44575 952.0251599999999 1940.4713100000001 952.02589 1940.4882200000002C952.02719 1940.3707900000002 952.05987 1939.9042000000002 952.415 1939.9400000000003C952.62 1939.9500000000003 953.949 1939.9200000000003 953.953 1939.8900000000003C954.0219999999999 1939.3400000000004 953.978 1938.9500000000003 955.632 1938.9700000000003C956.742 1938.9900000000002 956.9609999999999 1939.2000000000003 956.9659999999999 1939.5600000000002C956.9779999999998 1940.3300000000002 958.185 1939.88 958.5079999999999 1939.91C958.8309999999999 1939.95 958.9809999999999 1940.03 958.9879999999999 1940.3300000000002C958.996 1940.6200000000001 959.007 1941.2900000000002 958.9939999999999 1941.5900000000001C958.9809999999999 1941.9 958.8839999999999 1941.95 958.3759999999999 1942.0000000000002C957.8679999999998 1942.0500000000002 951.7269999999999 1941.9700000000003 952.3259999999999 1941.9500000000003C952.925 1941.9300000000003 951.935 1942.0100000000002 951.9509999999999 1941.5200000000002C951.9669999999999 1941.0300000000002 951.9899999999999 1940.0000000000002 952.021 1940.4100000000003ZM961.271 1939.95C961.848 1939.95 961.962 1940.66 961.971 1941.45C961.981 1942.23 962.045 1952.16 962.03 1953.18C962.014 1954.19 960.005 1954.1000000000001 960.723 1954.0600000000002C961.4399999999999 1954.0100000000002 950.531 1954.0800000000002 949.8839999999999 1954.0600000000002C949.2369999999999 1954.0400000000002 948.8619999999999 1953.88 948.8919999999999 1953.0700000000002C948.9229999999999 1952.2500000000002 948.9749999999999 1941.4600000000003 949.002 1940.65C949.016 1940.23531 949.4462199999999 1940.05976 949.7544499999999 1939.98964C950.0124299999999 1940.02621 951.0429999999999 1940.08 951.0429999999999 1940.08L951.0549999999998 1941.02C951.0549999999998 1941.02 950.7209999999999 1940.98 950.2599999999999 1940.98C949.7989999999999 1940.97 949.9269999999999 1941.1 949.9699999999999 1941.56C950.0129999999999 1942.03 950.069 1951.83 950.0009999999999 1952.4099999999999C949.9339999999999 1952.9799999999998 950.9289999999999 1952.9099999999999 950.4159999999998 1952.9199999999998C949.9039999999999 1952.9199999999998 960.0679999999999 1953.05 960.5899999999998 1952.9399999999998C961.1119999999999 1952.83 961.0139999999998 1952.6299999999999 961.0419999999998 1952.2199999999998C961.0689999999998 1951.7999999999997 961.0349999999999 1942.3099999999997 961.0719999999998 1941.8199999999997C961.1079999999997 1941.3199999999997 960.8669999999997 1941.1199999999997 960.5859999999998 1941.0999999999997C960.3049999999998 1941.0799999999997 959.9399999999998 1941.0299999999997 959.9399999999998 1941.0299999999997L959.9859999999999 1939.9599999999998C959.9859999999999 1939.9599999999998 960.6939999999998 1939.9499999999998 961.2709999999998 1939.9499999999998ZM949.866 1939.96C949.88945 1939.95937 949.91057 1939.95866 949.92948 1939.95792C949.88012 1939.96458 949.82005 1939.9747300000001 949.75446 1939.98965C949.66068 1939.9763599999999 949.66899 1939.96534 949.86601 1939.96001ZM949.92948 1939.95792C950.0814300000001 1939.93742 950.13187 1939.9499500000002 949.92948 1939.95792ZM954.871 1940.51C954.871 1940.87 955.159 1941.15 955.514 1941.15C955.87 1941.15 956.158 1940.8700000000001 956.158 1940.51C956.158 1940.16 955.87 1939.87 955.514 1939.87C955.159 1939.87 954.871 1940.1599999999999 954.871 1940.51ZM951 1952V1943H960V1952Z " fill="#dbe6f6" fill-opacity="1" transform="matrix(1,0,0,1,-948,-1938)"></path></svg>