<?xml version="1.0"?>
<!--Icons from directory ""-->
<svg xmlns="http://www.w3.org/2000/svg" width="18" height="202" viewBox="0 0 18 202"><svg xmlns:xlink="http://www.w3.org/1999/xlink" xmlns:svgjs="http://svgjs.com/svgjs" id="arrow-bottom" height="9" viewBox="0 0 18 9" width="18" version="1.1" y="0"><title>&#x421;&#x442;&#x440;&#x435;&#x43B;&#x43E;&#x447;&#x43A;&#x430;</title><desc>Created with Avocode.</desc><path id="arrow-bottom-SvgjsPath1007" fill="#69a1f5" transform="translate(-877 -633)" d="m878 633h16l-8 8z"/></svg><svg xmlns:xlink="http://www.w3.org/1999/xlink" xmlns:svgjs="http://svgjs.com/svgjs" id="arrow-ic" height="17" viewBox="0 0 9 17" width="9" version="1.1" y="9"><title>&#x421;&#x442;&#x440;&#x435;&#x43B;&#x43A;&#x430;</title><desc>Created with Avocode.</desc><path id="arrow-ic-SvgjsPath1044" fill="#569dff" transform="translate(-1109 -3924)" d="m1109.6 3937.4l5.9-6c0.5-0.6 1.5-0.6 2.1 0 0.5 0.6 0.5 1.6 0 2.2l-5.9 6c-0.6 0.6-1.5 0.6-2.1 0s-0.6-1.6 0-2.2zm0-12c0.6-0.6 1.5-0.6 2.1 0l5.9 6c0.5 0.6 0.5 1.6 0 2.2-0.6 0.6-1.6 0.6-2.1 0l-5.9-6c-0.6-0.6-0.6-1.6 0-2.2z"/></svg><svg xmlns:xlink="http://www.w3.org/1999/xlink" xmlns:svgjs="http://svgjs.com/svgjs" id="arrow-list-ic" height="17" viewBox="0 0 13 17" width="13" version="1.1" y="26"><title>&#x421;&#x442;&#x440;&#x435;&#x43B;&#x43A;&#x430;</title><desc>Created with Avocode.</desc><path id="arrow-list-ic-SvgjsPath1047" fill="#3cabee" transform="translate(-906 -3880)" d="m907.5 3887h8.28c0.83 0 1.5 0.7 1.5 1.5s-0.67 1.5-1.5 1.5h-8.28c-0.83 0-1.5-0.7-1.5-1.5s0.67-1.5 1.5-1.5zm3.09 6.4l5.87-6c0.58-0.6 1.52-0.6 2.1 0s0.58 1.6 0 2.2l-5.87 6c-0.58 0.6-1.52 0.6-2.1 0s-0.58-1.6 0-2.2zm0-12c0.58-0.6 1.52-0.6 2.1 0l5.87 6c0.58 0.6 0.58 1.6 0 2.2s-1.52 0.6-2.1 0l-5.87-6c-0.58-0.6-0.58-1.6 0-2.2z"/></svg><svg xmlns:xlink="http://www.w3.org/1999/xlink" xmlns:svgjs="http://svgjs.com/svgjs" id="call-ic" height="15" viewBox="0 0 15 15" width="15" version="1.1" y="43"><title>&#x422;&#x435;&#x43B;&#x435;&#x444;&#x43E;&#x43D; &#x43A;&#x43E;&#x43F;&#x438;&#x44F;</title><desc>Created with Avocode.</desc><path id="call-ic-SvgjsPath1038" fill="#fff" transform="translate(-533 -14)" d="m545.02 27.116s-0.68 1.151-2.23 1.388-2.93 0.052-4.7-1.338-4.33-4.612-4.48-6.608c-0.15-1.995-0.37-3.976 2.16-5.012l0.72 3.729-0.83 0.201s-1.02 0.346 0.27 2.042c1.3 1.696 3.87 4.809 3.87 4.809s0.89 1.365 1.76-0.548zm0.55-2.069l-0.07 1.107-3.35-1.306 0.79-0.85zm-7.19-6.636l-1.09 0.696-0.64-3.629 1.19 0.216zm1.62-1.062v1.342c0.87 0 1.68 0.34 2.3 0.957 0.61 0.612 0.94 1.421 0.95 2.286h1.34c-0.01-2.531-2.07-4.585-4.6-4.585zm0.06-2.627v1.215c3.09 0 5.92 2.832 5.94 5.935h1.21c-0.02-3.843-3.32-7.15-7.15-7.15zm0.86 5.352c-0.51 0-0.93 0.416-0.93 0.93 0 0.513 0.42 0.928 0.93 0.928 0.52 0 0.93-0.415 0.93-0.928 0-0.514-0.41-0.93-0.93-0.93z"/></svg><svg xmlns:xlink="http://www.w3.org/1999/xlink" xmlns:svgjs="http://svgjs.com/svgjs" id="cell-blue-ic" height="15" viewBox="0 0 15 15" width="15" version="1.1" y="58"><title>&#x422;&#x435;&#x43B;&#x435;&#x444;&#x43E;&#x43D;</title><desc>Created with Avocode.</desc><path id="cell-blue-ic-SvgjsPath1050" fill="#31aeee" transform="translate(-973 -486)" d="m985.02 499.12s-0.68 1.15-2.23 1.38c-1.55 0.24-2.93 0.05-4.7-1.34-1.77-1.38-4.33-4.61-4.48-6.6-0.15-2-0.37-3.98 2.16-5.01l0.72 3.72-0.83 0.2s-1.02 0.35 0.27 2.05c1.3 1.69 3.87 4.81 3.87 4.81s0.89 1.36 1.76-0.55zm0.55-2.07l-0.07 1.1-3.35-1.3 0.79-0.85zm-7.19-6.64l-1.09 0.7-0.64-3.63 1.19 0.21zm1.62-1.06v1.34c0.87 0 1.68 0.34 2.3 0.96 0.61 0.61 0.94 1.42 0.95 2.28h1.34c-0.01-2.53-2.07-4.58-4.6-4.58zm0.06-2.63v1.22c3.09 0 5.92 2.83 5.94 5.93h1.21c-0.02-3.84-3.32-7.15-7.15-7.15zm0.86 5.35c-0.51 0-0.93 0.42-0.93 0.93 0 0.52 0.42 0.93 0.93 0.93 0.52 0 0.93-0.41 0.93-0.93 0-0.51-0.41-0.93-0.93-0.93z"/></svg><svg xmlns:xlink="http://www.w3.org/1999/xlink" xmlns:svgjs="http://svgjs.com/svgjs" id="cell-gray-ic" height="16" viewBox="0 0 16 16" width="16" version="1.1" y="73"><title>&#x422;&#x435;&#x43B;&#x435;&#x444;&#x43E;&#x43D; &#x43A;&#x43E;&#x43F;&#x438;&#x44F; 2</title><desc>Created with Avocode.</desc><path id="cell-gray-ic-SvgjsPath1010" fill="#dde5f5" transform="translate(-643 -3886)" d="m656.59 3900.3s-0.74 1.3-2.44 1.6-3.22 0.1-5.16-1.5-4.74-5.4-4.9-7.7c-0.17-2.3-0.41-4.5 2.36-5.7l0.8 4.2-0.91 0.3s-1.13 0.4 0.29 2.3c1.42 2 4.24 5.6 4.24 5.6s0.98 1.6 1.92-0.6zm0.6-2.4l-0.08 1.3-3.67-1.5 0.87-1zm-7.88-7.6l-1.19 0.8-0.7-4.2 1.3 0.2zm1.77-1.3v1.6c0.96 0 1.85 0.4 2.53 1.1 0.67 0.7 1.03 1.6 1.04 2.6h1.47c-0.02-2.9-2.27-5.3-5.04-5.3zm0.07-3v1.4c3.39 0 6.49 3.3 6.51 6.8h1.34c-0.03-4.4-3.65-8.2-7.85-8.2zm0.95 6.2c-0.56 0-1.02 0.4-1.02 1s0.46 1.1 1.02 1.1 1.02-0.5 1.02-1.1-0.46-1-1.02-1z"/></svg><svg xmlns:xlink="http://www.w3.org/1999/xlink" xmlns:svgjs="http://svgjs.com/svgjs" id="fax-blue-ic" height="16" viewBox="0 0 16 16" width="16" version="1.1" y="89"><title>&#x424;&#x430;&#x43A;&#x441;</title><desc>Created with Avocode.</desc><path id="fax-blue-ic-SvgjsPath1053" fill="#43b9f6" transform="translate(-972 -534)" d="m986.5 546.05h-1.39v-4.17h-9.16v4.17h-1.64c-0.77 0-1.39-0.62-1.39-1.39v-6.95c0-0.76 0.62-1.39 1.39-1.39h1.64v1.39h9.16v-1.39h1.39c0.77 0 1.39 0.63 1.39 1.39v6.95c0 0.77-0.62 1.39-1.39 1.39zm0.17-6.95h-1.67v1.67h1.67zm-9.64-5.05h6.94v2.9h-6.94zm7.01 14.96h-7.04v-5.93h7.04zm-3.04-4.01v-1h-3v1zm2 2v-1h-5v1z"/></svg><svg xmlns:xlink="http://www.w3.org/1999/xlink" xmlns:svgjs="http://svgjs.com/svgjs" id="fax-gray-ic" height="16" viewBox="0 0 16 16" width="16" version="1.1" y="105"><title>&#x424;&#x430;&#x43A;&#x441;</title><desc>Created with Avocode.</desc><path id="fax-gray-ic-SvgjsPath1013" fill="#dde5f5" transform="translate(-643 -3968)" d="m657.5 3980h-1.39v-4.1h-9.16v4.1h-1.64c-0.77 0-1.39-0.6-1.39-1.3v-7c0-0.7 0.62-1.4 1.39-1.4h1.64v1.4h9.16v-1.4h1.39c0.77 0 1.39 0.7 1.39 1.4v7c0 0.7-0.62 1.3-1.39 1.3zm0.17-6.9h-1.67v1.7h1.67zm-9.64-5.1h6.94v3h-6.94zm7.01 15h-7.04v-5.9h7.04zm-3.04-4v-1h-3v1zm2 2v-1h-5v1z"/></svg><svg xmlns:xlink="http://www.w3.org/1999/xlink" xmlns:svgjs="http://svgjs.com/svgjs" id="fax-ic" height="16" viewBox="0 0 16 16" width="16" version="1.1" y="121"><title>&#x424;&#x430;&#x43A;&#x441;</title><desc>Created with Avocode.</desc><path id="fax-ic-SvgjsPath1041" fill="#fff" transform="translate(-930 -15)" d="m944.5 27.048h-1.39v-4.167h-9.16v4.167h-1.64c-0.77 0-1.39-0.622-1.39-1.389v-6.945c0-0.767 0.62-1.388 1.39-1.388h1.64v1.388h9.16v-1.388h1.39c0.77 0 1.39 0.621 1.39 1.388v6.945c0 0.767-0.62 1.389-1.39 1.389zm0.17-6.942h-1.67v1.668h1.67zm-9.64-5.058h6.94v2.903h-6.94zm7.01 14.965h-7.04v-5.93h7.04zm-3.04-4.013v-1h-3v1zm2 2v-1h-5v1z"/></svg><svg xmlns:xlink="http://www.w3.org/1999/xlink" xmlns:svgjs="http://svgjs.com/svgjs" id="form-ic" height="17" viewBox="0 0 15 17" width="15" version="1.1" y="137"><title>&#x43A; &#x444;&#x43E;&#x440;&#x43C;&#x435; &#x437;&#x430;&#x43A;&#x430;&#x437;&#x430;:</title><desc>Created with Avocode.</desc><path id="form-ic-SvgjsPath1019" fill="#dde5f5" transform="translate(-948 -3941)" d="m952.02 3943.4l0.01 0.1c0-0.1 0.03-0.6 0.39-0.6 0.2 0.1 1.53 0 1.53 0 0.07-0.6 0.03-1 1.68-0.9 1.11 0 1.33 0.2 1.34 0.6 0.01 0.7 1.21 0.3 1.54 0.3 0.32 0 0.47 0.1 0.48 0.4s0.02 1 0 1.3c-0.01 0.3-0.11 0.4-0.61 0.4-0.51 0-6.65 0-6.05-0.1 0.59 0-0.39 0.1-0.38-0.4 0.02-0.5 0.04-1.5 0.07-1.1zm9.25-0.4c0.58 0 0.69 0.7 0.7 1.4 0.01 0.8 0.07 10.8 0.06 11.8-0.02 1-2.03 0.9-1.31 0.9 0.72-0.1-10.19 0-10.84 0-0.64-0.1-1.02-0.2-0.99-1 0.03-0.9 0.08-11.6 0.11-12.5 0.02-0.4 0.45-0.5 0.75-0.6 0.26 0 1.29 0.1 1.29 0.1l0.01 0.9h-0.79c-0.46 0-0.33 0.1-0.29 0.6 0.04 0.4 0.1 10.2 0.03 10.8s0.93 0.5 0.42 0.5c-0.52 0 9.65 0.2 10.17 0 0.52-0.1 0.42-0.3 0.45-0.7s-0.01-9.9 0.03-10.4-0.2-0.7-0.48-0.7c-0.29 0-0.65-0.1-0.65-0.1l0.05-1h1.28zm-11.4 0h0.06-0.18 0.12zm0.06 0c0.15-0.1 0.2-0.1 0 0zm4.94 0.5c0 0.4 0.29 0.7 0.64 0.7 0.36 0 0.65-0.3 0.65-0.7 0-0.3-0.29-0.6-0.65-0.6-0.35 0-0.64 0.3-0.64 0.6zm-3.87 11.5v-9h9v9z"/></svg><svg xmlns:xlink="http://www.w3.org/1999/xlink" xmlns:svgjs="http://svgjs.com/svgjs" id="map-ic" height="15" viewBox="0 0 16 15" width="16" version="1.1" y="154"><title>&#x410;&#x434;&#x440;&#x435;&#x441;</title><desc>Created with Avocode.</desc><path id="map-ic-SvgjsPath1022" fill="#dde5f5" transform="translate(-947 -3887)" d="m963 3899.8c0 1.4-2.18 2.2-7.93 2.2-4.38 0-7.93-0.5-7.93-1.9 0-0.9 1.74-1.6 4.27-2l0.61 0.7c-3.17 0.3-2.91 0.8-2.91 1.2 0 0.5 0.45 0.9 6.03 0.8 5.07 0 6.41-0.5 6.41-0.9s-1.01-1-3.4-1.2l0.35-0.7c2.66 0.3 4.5 0.8 4.5 1.8zm-5.95-1.1c-0.68 0.9-1.4 1.4-2.05 1.4-0.64 0-1.32-0.5-1.98-1.3l-0.61-0.9c-1.21-2-2.17-4.6-2.17-6.1 0-2.5 2.25-4.6 4.81-4.6s4.71 2.1 4.71 4.6c0 1.3-0.71 3.5-1.69 5.3h-0.01l-0.96 1.6h-0.05zm0.44-7.7h-0.15c-0.04 0-0.08-0.1-0.12-0.1h-1.42-0.07c-0.03 0-0.04 0-0.05-0.1l-0.36-1.2c-0.02-0.1-0.04-0.1-0.06-0.2-0.06-0.1-0.18-0.1-0.29-0.1s-0.2 0-0.27 0.1c-0.03 0.1-0.05 0.1-0.06 0.2l-0.31 1.2c0 0.1-0.02 0.1-0.05 0.1h-0.06-1.43c-0.06 0-0.11 0.1-0.17 0.1h-0.1c-0.03 0.1-0.05 0.1-0.05 0.2s0.04 0.1 0.07 0.2c0.03 0 0.06 0 0.1 0.1l1.15 0.7c0.02 0 0.06 0.1 0.06 0.1l-0.01 0.1-0.52 1.5c-0.01 0-0.02 0.1-0.02 0.1 0 0.1 0 0.1 0.04 0.2 0.05 0 0.19 0.1 0.25 0.1 0.12 0 0.17-0.1 0.22-0.1l1.15-0.9h0.05c0.03 0 0.12 0.1 0.13 0.1l1.18 0.8c0.06 0 0.11 0.1 0.23 0.1 0.06 0 0.19-0.1 0.23-0.1 0.05-0.1 0.05-0.1 0.05-0.2 0 0-0.02-0.1-0.03-0.1l-0.58-1.6s0.03-0.1 0.05-0.1l1.11-0.7c0.03-0.1 0.06-0.1 0.09-0.1 0.03-0.1 0.07-0.1 0.07-0.2s-0.02-0.1-0.05-0.2z"/></svg><svg xmlns:xlink="http://www.w3.org/1999/xlink" xmlns:svgjs="http://svgjs.com/svgjs" id="post-gray-ic" height="16" viewBox="0 0 17 16" width="17" version="1.1" y="169"><title>&#x41F;&#x43E;&#x447;&#x442;&#x430;</title><desc>Created with Avocode.</desc><path id="post-gray-ic-SvgjsPath1016" fill="#dde5f5" transform="translate(-643 -4004)" d="m658.46 4009.6h0.01l-1.42-1.2-5.57-4.2c-0.14-0.2-0.31-0.2-0.49-0.2-0.17 0-0.34 0-0.48 0.2l-5.56 4.2c-0.01 0.1-0.02 0.1-0.04 0.1l-1.38 1.1h0.02c-0.33 0.2-0.55 0.6-0.55 1.1v8c0 0.7 0.6 1.3 1.34 1.3h13.33c0.74 0 1.33-0.6 1.33-1.3v-8c0-0.5-0.21-0.9-0.54-1.1zm-0.16 10h-0.18l-1.58-1.5h-0.02l-4.98-4.8c-0.15-0.2-0.35-0.2-0.54-0.2-0.2 0-0.39 0-0.55 0.2l-4.96 4.8h-0.05l-1.54 1.5c-0.06 0-0.14 0-0.19-0.1-0.05 0-0.05-0.1 0-0.1l4.48-4.9-4.35-3.9c-0.05 0-0.05-0.1 0-0.2h0.08 14.17 0.1c0.05 0.1 0.04 0.2-0.01 0.2l-4.39 4c0.01 0 0.02 0 0.04-0.1l4.48 4.9c0.05 0 0.04 0.1-0.01 0.2z"/></svg><svg xmlns:xlink="http://www.w3.org/1999/xlink" xmlns:svgjs="http://svgjs.com/svgjs" id="post-ic" height="17" viewBox="0 0 17 17" width="17" version="1.1" y="185"><title>&#x41F;&#x43E;&#x447;&#x442;&#x430; &#x43A;&#x43E;&#x43F;&#x438;&#x44F;</title><desc>Created with Avocode.</desc><path id="post-ic-SvgjsPath1056" fill="#43b9f6" transform="translate(-972 -556)" d="m987.46 562.6h0.01l-1.42-1.15-5.57-4.29c-0.14-0.11-0.31-0.16-0.49-0.16-0.17 0-0.34 0.05-0.48 0.16l-5.56 4.29c-0.01 0.01-0.02 0.02-0.04 0.03l-1.38 1.12h0.02c-0.33 0.24-0.55 0.62-0.55 1.07v7.99c0 0.74 0.6 1.34 1.34 1.34h13.33c0.74 0 1.33-0.6 1.33-1.34v-7.99c0-0.44-0.21-0.83-0.54-1.07zm-0.16 9.97c-0.05 0.05-0.13 0.04-0.18 0l-1.58-1.46c0-0.01-0.01-0.02-0.02-0.03l-4.98-4.8c-0.15-0.14-0.35-0.21-0.54-0.21-0.2 0-0.39 0.07-0.55 0.21l-4.96 4.8c-0.02 0.01-0.03 0.03-0.05 0.05l-1.54 1.43c-0.06 0.05-0.14 0.04-0.19-0.01s-0.05-0.13 0-0.18l4.48-4.84-4.35-3.9c-0.05-0.05-0.05-0.14 0-0.19 0.02-0.02 0.05-0.03 0.08-0.04h14.17c0.04 0 0.07 0.01 0.1 0.05 0.05 0.05 0.04 0.13-0.01 0.18l-4.4 3.95c0.02-0.01 0.03-0.02 0.05-0.03l4.48 4.83c0.05 0.05 0.04 0.14-0.01 0.19z"/></svg></svg>
