<svg id="SvgjsSvg1029" xmlns="http://www.w3.org/2000/svg" version="1.1" xmlns:xlink="http://www.w3.org/1999/xlink" xmlns:svgjs="http://svgjs.com/svgjs" width="16" height="15" viewBox="0 0 16 15"><title>Адрес</title><desc>Created with Avocode.</desc><defs id="SvgjsDefs1030"></defs><path id="SvgjsPath1031" d="M963 1896.83C963 1898.21 960.825 1898.97 955.071 1898.97C950.692 1898.97 947.143 1898.52 947.143 1897.14C947.143 1896.1758300000001 948.87543 1895.4508500000002 951.41297 1895.10148L952.02397 1895.83092C948.8512 1896.10516 949.11 1896.59677 949.11 1896.98C949.11 1897.47 949.559 1897.8700000000001 955.143 1897.84C960.2090000000001 1897.81 961.552 1897.34 961.552 1896.86C961.552 1896.49677 960.5376200000001 1895.94122 958.15408 1895.73509L958.505 1895.0122C961.16445 1895.25902 963 1895.8376799999999 963 1896.83ZM957.04988 1895.6698C956.37424 1896.55171 955.6546500000001 1897.1399999999999 954.996 1897.1399999999999C954.36343 1897.1399999999999 953.6756399999999 1896.5904899999998 953.02486 1895.7588899999998C953.02346 1895.7589699999999 953.02206 1895.7590599999999 953.02066 1895.75914L952.40619 1894.8693799999999C951.19644 1892.93527 950.244 1890.2504099999999 950.244 1888.83C950.244 1886.27 952.488 1884.1899999999998 955.0500000000001 1884.1899999999998C957.6120000000001 1884.1899999999998 959.7560000000001 1886.2699999999998 959.7560000000001 1888.83C959.7560000000001 1890.09608 959.04533 1892.26009 958.0723500000001 1894.06242L958.0620000000001 1894.06L957.0976800000001 1895.67149C957.0817900000001 1895.67091 957.06586 1895.6703499999999 957.04988 1895.6698ZM957.488 1888.05C957.4390000000001 1887.99 957.3870000000001 1887.97 957.345 1887.96C957.302 1887.95 957.263 1887.94 957.221 1887.94H955.796C955.783 1887.94 955.7520000000001 1887.93 955.7270000000001 1887.91C955.7010000000001 1887.89 955.6850000000001 1887.8700000000001 955.6820000000001 1887.8500000000001L955.3150000000002 1886.5700000000002C955.3010000000002 1886.5200000000002 955.2810000000002 1886.4800000000002 955.2550000000002 1886.43C955.2040000000002 1886.3300000000002 955.0840000000002 1886.27 954.9700000000003 1886.26C954.8580000000003 1886.26 954.7720000000003 1886.31 954.6970000000002 1886.43C954.6680000000002 1886.48 954.6510000000002 1886.52 954.6380000000003 1886.5700000000002L954.3290000000003 1887.8500000000001C954.3260000000002 1887.8700000000001 954.3090000000003 1887.89 954.2840000000003 1887.91C954.2580000000004 1887.93 954.2280000000003 1887.94 954.2150000000004 1887.94H952.7890000000003C952.7340000000004 1887.94 952.6830000000003 1887.95 952.6210000000003 1887.97C952.5900000000004 1887.99 952.5550000000003 1888.01 952.5230000000004 1888.05C952.4900000000004 1888.09 952.4690000000004 1888.1399999999999 952.4700000000004 1888.2C952.4710000000003 1888.28 952.5070000000004 1888.3300000000002 952.5360000000004 1888.3700000000001C952.5670000000003 1888.4 952.5990000000004 1888.43 952.6360000000004 1888.45L953.7920000000004 1889.21C953.8120000000004 1889.22 953.8490000000004 1889.28 953.8450000000004 1889.33C953.8450000000004 1889.34 953.8440000000004 1889.35 953.8420000000003 1889.35L953.3190000000003 1890.8799999999999C953.3060000000003 1890.9299999999998 953.2970000000003 1890.9699999999998 953.2960000000003 1891.02C953.2970000000003 1891.06 953.3020000000002 1891.11 953.3440000000003 1891.17C953.3850000000003 1891.24 953.5280000000002 1891.28 953.5900000000003 1891.27C953.7070000000002 1891.27 953.7560000000003 1891.22 953.8140000000003 1891.18L954.9550000000003 1890.3200000000002C954.9640000000003 1890.3100000000002 954.9870000000003 1890.3000000000002 955.0130000000003 1890.3000000000002C955.0390000000002 1890.3000000000002 955.1300000000002 1890.38 955.1400000000002 1890.39L956.3230000000002 1891.18C956.3820000000002 1891.23 956.4300000000002 1891.27 956.5450000000002 1891.28C956.5470000000001 1891.28 956.5500000000002 1891.28 956.5530000000002 1891.28C956.6120000000002 1891.28 956.7410000000002 1891.24 956.7820000000003 1891.18C956.8250000000003 1891.1200000000001 956.8250000000003 1891.0600000000002 956.8250000000003 1891.02C956.8250000000003 1890.97 956.8140000000003 1890.93 956.7990000000003 1890.8799999999999L956.2220000000003 1889.34C956.2200000000004 1889.33 956.2180000000003 1889.32 956.2180000000003 1889.31C956.2150000000003 1889.27 956.2480000000003 1889.22 956.2670000000003 1889.21L957.3750000000002 1888.45C957.4110000000002 1888.43 957.4440000000002 1888.4 957.4740000000003 1888.3700000000001C957.5030000000003 1888.3300000000002 957.5390000000003 1888.2800000000002 957.5410000000003 1888.2C957.5420000000003 1888.14 957.5200000000003 1888.0900000000001 957.4880000000003 1888.05Z " fill="#dbe6f6" fill-opacity="1" transform="matrix(1,0,0,1,-947,-1884)"></path></svg>