<svg id="SvgjsSvg1023" xmlns="http://www.w3.org/2000/svg" version="1.1" xmlns:xlink="http://www.w3.org/1999/xlink" xmlns:svgjs="http://svgjs.com/svgjs" width="16" height="16" viewBox="0 0 17 16"><title>Почта</title><desc>Created with Avocode.</desc><defs id="SvgjsDefs1024"></defs><path id="SvgjsPath1025" d="M658.463 2006.6H658.4699999999999L657.05 2005.4499999999998L651.482 2001.1599999999999C651.338 2001.05 651.1659999999999 2000.9999999999998 650.9939999999999 2000.9999999999998C650.8209999999999 2000.9999999999998 650.6489999999999 2001.0499999999997 650.5059999999999 2001.1599999999999L644.9499999999998 2005.4499999999998C644.9369999999998 2005.4599999999998 644.9269999999998 2005.4699999999998 644.9149999999998 2005.4799999999998L643.5319999999998 2006.5899999999997L643.5459999999998 2006.5999999999997C643.2179999999998 2006.8399999999997 643.0019999999998 2007.2299999999998 643.0019999999998 2007.6699999999996V2015.6599999999996C643.0019999999998 2016.3999999999996 643.5999999999998 2016.9999999999995 644.3379999999999 2016.9999999999995H657.6679999999999C658.406 2016.9999999999995 659.0019999999998 2016.3999999999996 659.0019999999998 2015.6599999999996V2007.6699999999996C659.0019999999998 2007.2299999999996 658.7889999999999 2006.8399999999997 658.4629999999999 2006.5999999999997ZM658.299 2016.57C658.2479999999999 2016.61 658.169 2016.61 658.1179999999999 2016.57L656.545 2015.11C656.536 2015.1 656.5269999999999 2015.09 656.516 2015.08L651.5419999999999 2010.28C651.3889999999999 2010.1399999999999 651.1929999999999 2010.07 650.997 2010.07C650.8019999999999 2010.07 650.606 2010.1399999999999 650.453 2010.28L645.486 2015.08C645.47 2015.09 645.458 2015.11 645.443 2015.1299999999999L643.8969999999999 2016.56C643.843 2016.61 643.7589999999999 2016.6 643.709 2016.55C643.661 2016.5 643.6619999999999 2016.4199999999998 643.709 2016.37L648.188 2011.53L643.845 2007.6299999999999C643.792 2007.58 643.7900000000001 2007.4899999999998 643.841 2007.4399999999998C643.863 2007.4199999999998 643.892 2007.4099999999999 643.922 2007.3999999999999H658.0880000000001C658.1270000000001 2007.3999999999999 658.1650000000001 2007.4099999999999 658.191 2007.4499999999998C658.236 2007.4999999999998 658.23 2007.58 658.181 2007.6299999999999L653.7850000000001 2011.58C653.7990000000001 2011.57 653.8140000000001 2011.56 653.8310000000001 2011.55L658.3070000000001 2016.3799999999999C658.3570000000001 2016.4299999999998 658.3540000000002 2016.52 658.2990000000001 2016.57Z " fill="#dbe6f6" fill-opacity="1" transform="matrix(1,0,0,1,-643,-2001)"></path></svg>