<svg id="SvgjsSvg1042" xmlns="http://www.w3.org/2000/svg" version="1.1" xmlns:xlink="http://www.w3.org/1999/xlink" xmlns:svgjs="http://svgjs.com/svgjs" width="9" height="17" viewBox="0 0 9 17"><title>Стрелка </title><desc>Created with Avocode.</desc><defs id="SvgjsDefs1043"></defs><path id="SvgjsPath1044" d="M1109.59 3937.42L1115.4599999999998 3931.4300000000003C1116.0399999999997 3930.84 1116.9799999999998 3930.84 1117.5599999999997 3931.4300000000003C1118.1399999999996 3932.0200000000004 1118.1399999999996 3932.9800000000005 1117.5599999999997 3933.57L1111.6899999999998 3939.56C1111.11 3940.15 1110.1699999999998 3940.15 1109.59 3939.56C1109.01 3938.97 1109.01 3938.0099999999998 1109.59 3937.42ZM1109.59 3925.44C1110.1699999999998 3924.85 1111.11 3924.85 1111.6899999999998 3925.44L1117.5599999999997 3931.43C1118.1399999999996 3932.02 1118.1399999999996 3932.98 1117.5599999999997 3933.5699999999997C1116.9799999999998 3934.16 1116.0399999999997 3934.16 1115.4599999999998 3933.5699999999997L1109.59 3927.58C1109.01 3926.99 1109.01 3926.0299999999997 1109.59 3925.44Z " fill="#569dff" fill-opacity="1" transform="matrix(1,0,0,1,-1109,-3924)"></path></svg>