<svg id="SvgjsSvg1045" xmlns="http://www.w3.org/2000/svg" version="1.1" xmlns:xlink="http://www.w3.org/1999/xlink" xmlns:svgjs="http://svgjs.com/svgjs" width="13" height="17" viewBox="0 0 13 17"><title>Стрелка</title><desc>Created with Avocode.</desc><defs id="SvgjsDefs1046"></defs><path id="SvgjsPath1047" d="M907.5 3887H915.781C916.6099999999999 3887 917.281 3887.67 917.281 3888.5C917.281 3889.33 916.6099999999999 3890 915.781 3890H907.5C906.672 3890 906 3889.33 906 3888.5C906 3887.67 906.672 3887 907.5 3887ZM910.589 3893.42L916.4630000000001 3887.4300000000003C917.0430000000001 3886.84 917.9820000000001 3886.84 918.561 3887.4300000000003C919.1410000000001 3888.0200000000004 919.1410000000001 3888.9800000000005 918.561 3889.57L912.687 3895.56C912.107 3896.15 911.168 3896.15 910.589 3895.56C910.009 3894.97 910.009 3894.0099999999998 910.589 3893.42ZM910.589 3881.44C911.168 3880.85 912.1070000000001 3880.85 912.687 3881.44L918.561 3887.43C919.1410000000001 3888.02 919.1410000000001 3888.98 918.561 3889.5699999999997C917.9820000000001 3890.16 917.043 3890.16 916.4630000000001 3889.5699999999997L910.589 3883.58C910.009 3882.99 910.009 3882.0299999999997 910.589 3881.44Z " fill="#3cabee" fill-opacity="1" transform="matrix(1,0,0,1,-906,-3880)"></path></svg>