<svg id="SvgjsSvg1036" xmlns="http://www.w3.org/2000/svg" version="1.1" xmlns:xlink="http://www.w3.org/1999/xlink" xmlns:svgjs="http://svgjs.com/svgjs" width="15" height="15" viewBox="0 0 15 15"><title>Телефон копия</title><desc>Created with Avocode.</desc><defs id="SvgjsDefs1037"></defs><path id="SvgjsPath1038" d="M545.02 27.1156C545.02 27.1156 544.345 28.2667 542.793 28.5039C541.242 28.7409 539.855 28.555600000000002 538.086 27.1658C536.318 25.776 533.759 22.5542 533.611 20.558300000000003C533.463 18.562800000000003 533.24 16.581900000000005 535.77 15.545900000000003L536.494 19.2753L535.663 19.4756C535.663 19.4756 534.6370000000001 19.8218 535.933 21.5179C537.23 23.2145 539.803 26.3271 539.803 26.3271C539.803 26.3271 540.693 27.6915 541.556 25.7789ZM545.571 25.047L545.498 26.154L542.147 24.8485L542.937 23.9978ZM538.379 18.4114L537.291 19.1071L536.6500000000001 15.477799999999998L537.839 15.694299999999998ZM539.995 17.349V18.6908C540.866 18.6908 541.684 19.0307 542.299 19.6482C542.9069999999999 20.2596 543.244 21.069399999999998 543.2529999999999 21.9342H544.5939999999999C544.5759999999999 19.4026 542.52 17.349 539.9949999999999 17.349ZM540.06 14.7217V15.9374C543.15 15.9374 545.978 18.7687 545.997 21.8718H547.2139999999999C547.1949999999999 18.0287 543.89 14.7217 540.06 14.7217ZM540.923 20.0743C540.41 20.0743 539.994 20.4903 539.994 21.003500000000003C539.994 21.517000000000003 540.4100000000001 21.9322 540.923 21.9322C541.436 21.9322 541.852 21.517000000000003 541.852 21.003500000000003C541.852 20.4903 541.4359999999999 20.0743 540.923 20.0743Z " fill="#ffffff" fill-opacity="1" transform="matrix(1,0,0,1,-533,-14)"></path></svg>