<svg id="SvgjsSvg1048" xmlns="http://www.w3.org/2000/svg" version="1.1" xmlns:xlink="http://www.w3.org/1999/xlink" xmlns:svgjs="http://svgjs.com/svgjs" width="15" height="15" viewBox="0 0 15 15"><title>Телефон </title><desc>Created with Avocode.</desc><defs id="SvgjsDefs1049"></defs><path id="SvgjsPath1050" d="M985.02 499.115C985.02 499.115 984.345 500.266 982.793 500.503C981.242 500.741 979.855 500.554 978.086 499.164C976.318 497.775 973.759 494.554 973.611 492.55699999999996C973.463 490.56199999999995 973.24 488.58099999999996 975.77 487.54599999999994L976.494 491.27399999999994L975.663 491.47499999999997C975.663 491.47499999999997 974.6370000000001 491.82099999999997 975.933 493.51699999999994C977.23 495.21299999999997 979.803 498.32599999999996 979.803 498.32599999999996C979.803 498.32599999999996 980.693 499.691 981.556 497.77799999999996ZM985.571 497.046L985.498 498.153L982.147 496.84700000000004L982.937 495.997ZM978.379 490.411L977.291 491.106L976.6500000000001 487.477L977.839 487.69399999999996ZM979.995 489.348V490.69C980.866 490.69 981.684 491.029 982.299 491.648C982.9069999999999 492.259 983.244 493.069 983.2529999999999 493.93300000000005H984.5939999999999C984.5759999999999 491.40200000000004 982.52 489.34800000000007 979.9949999999999 489.34800000000007ZM980.06 486.72V487.937C983.15 487.937 985.978 490.76800000000003 985.997 493.87H987.2139999999999C987.1949999999999 490.028 983.89 486.72 980.06 486.72ZM980.923 492.074C980.41 492.074 979.994 492.48900000000003 979.994 493.002C979.994 493.516 980.4100000000001 493.931 980.923 493.931C981.436 493.931 981.852 493.51599999999996 981.852 493.002C981.852 492.48900000000003 981.4359999999999 492.074 980.923 492.074Z " fill="#31aeee" fill-opacity="1" transform="matrix(1,0,0,1,-973,-486)"></path></svg>