<svg id="SvgjsSvg1008" xmlns="http://www.w3.org/2000/svg" version="1.1" xmlns:xlink="http://www.w3.org/1999/xlink" xmlns:svgjs="http://svgjs.com/svgjs" width="16" height="16" viewBox="0 0 16 16"><title>Телефон копия 2</title><desc>Created with Avocode.</desc><defs id="SvgjsDefs1009"></defs><path id="SvgjsPath1010" d="M656.59 3900.29C656.59 3900.29 655.851 3901.62 654.15 3901.9C652.4499999999999 3902.17 650.93 3901.9500000000003 648.991 3900.35C647.054 3898.75 644.25 3895.0299999999997 644.087 3892.73C643.925 3890.43 643.681 3888.15 646.453 3886.95L647.247 3891.25L646.337 3891.48C646.337 3891.48 645.211 3891.88 646.632 3893.84C648.053 3895.8 650.8729999999999 3899.38 650.8729999999999 3899.38C650.8729999999999 3899.38 651.848 3900.96 652.794 3898.75ZM657.194 3897.91L657.1139999999999 3899.19L653.4419999999999 3897.68L654.3079999999999 3896.7ZM649.312 3890.26L648.121 3891.0600000000004L647.417 3886.8700000000003L648.72 3887.1200000000003ZM651.084 3889.03V3890.5800000000004C652.0379999999999 3890.5800000000004 652.934 3890.9700000000003 653.608 3891.6800000000003C654.275 3892.3900000000003 654.645 3893.32 654.654 3894.32H656.124C656.104 3891.4 653.851 3889.03 651.0840000000001 3889.03ZM651.154 3886V3887.4C654.5409999999999 3887.4 657.641 3890.67 657.662 3894.25H658.995C658.974 3889.82 655.352 3886 651.154 3886ZM652.101 3892.18C651.538 3892.18 651.082 3892.6499999999996 651.082 3893.25C651.082 3893.84 651.538 3894.32 652.101 3894.32C652.663 3894.32 653.119 3893.84 653.119 3893.25C653.119 3892.65 652.663 3892.18 652.101 3892.18Z " fill="#dde5f5" fill-opacity="1" transform="matrix(1,0,0,1,-643,-3886)"></path></svg>