<svg id="SvgjsSvg1039" xmlns="http://www.w3.org/2000/svg" version="1.1" xmlns:xlink="http://www.w3.org/1999/xlink" xmlns:svgjs="http://svgjs.com/svgjs" width="16" height="16" viewBox="0 0 16 16"><title>Факс </title><desc>Created with Avocode.</desc><defs id="SvgjsDefs1040"></defs><path id="SvgjsPath1041" d="M944.5 27.0478H943.111V22.881H933.951V27.047800000000002H932.312C931.545 27.047800000000002 930.923 26.4261 930.923 25.658700000000003V18.714100000000002C930.923 17.947400000000002 931.545 17.3255 932.312 17.3255H933.951V18.714100000000002H943.111V17.3255H944.5C945.267 17.3255 945.889 17.947400000000002 945.889 18.714100000000002V25.658700000000003C945.889 26.4261 945.267 27.047800000000002 944.5 27.047800000000002ZM944.669 20.1056H943V21.7743H944.669ZM935.028 15.0476H941.972V17.950599999999998H935.028ZM942.035 30.0132H934.996V24.0826H942.035ZM939 26V25H936V26ZM941 28V27H936V28Z " fill="#ffffff" fill-opacity="1" transform="matrix(1,0,0,1,-930,-15)"></path></svg>