<svg id="SvgjsSvg1051" xmlns="http://www.w3.org/2000/svg" version="1.1" xmlns:xlink="http://www.w3.org/1999/xlink" xmlns:svgjs="http://svgjs.com/svgjs" width="16" height="16" viewBox="0 0 16 16"><title>Факс</title><desc>Created with Avocode.</desc><defs id="SvgjsDefs1052"></defs><path id="SvgjsPath1053" d="M986.5 546.047H985.111V541.88H975.951V546.047H974.312C973.545 546.047 972.923 545.4250000000001 972.923 544.658V537.714C972.923 536.946 973.545 536.325 974.312 536.325H975.951V537.714H985.111V536.325H986.5C987.267 536.325 987.889 536.946 987.889 537.714V544.658C987.889 545.4250000000001 987.267 546.047 986.5 546.047ZM986.669 539.105H985V540.773H986.669ZM977.028 534.047H983.972V536.95H977.028ZM984.035 549.012H976.996V543.0809999999999H984.035ZM981 545V544H978V545ZM983 547V546H978V547Z " fill="#43b9f6" fill-opacity="1" transform="matrix(1,0,0,1,-972,-534)"></path></svg>