<svg id="SvgjsSvg1011" xmlns="http://www.w3.org/2000/svg" version="1.1" xmlns:xlink="http://www.w3.org/1999/xlink" xmlns:svgjs="http://svgjs.com/svgjs" width="16" height="16" viewBox="0 0 16 16"><title>Факс</title><desc>Created with Avocode.</desc><defs id="SvgjsDefs1012"></defs><path id="SvgjsPath1013" d="M657.5 3980.05H656.111V3975.88H646.951V3980.05H645.312C644.545 3980.05 643.924 3979.42 643.924 3978.6600000000003V3971.7100000000005C643.924 3970.9500000000003 644.545 3970.3200000000006 645.312 3970.3200000000006H646.951V3971.7100000000005H656.111V3970.3200000000006H657.5C658.267 3970.3200000000006 658.889 3970.9500000000007 658.889 3971.7100000000005V3978.6600000000003C658.889 3979.4200000000005 658.267 3980.05 657.5 3980.05ZM657.669 3973.1H656V3974.77H657.669ZM648.028 3968.05H654.972V3970.9500000000003H648.028ZM655.035 3983.01H647.996V3977.0800000000004H655.035ZM652 3979V3978H649V3979ZM654 3981V3980H649V3981Z " fill="#dde5f5" fill-opacity="1" transform="matrix(1,0,0,1,-643,-3968)"></path></svg>