<svg id="SvgjsSvg1017" xmlns="http://www.w3.org/2000/svg" version="1.1" xmlns:xlink="http://www.w3.org/1999/xlink" xmlns:svgjs="http://svgjs.com/svgjs" width="15" height="17" viewBox="0 0 15 17"><title>к форме заказа:</title><desc>Created with Avocode.</desc><defs id="SvgjsDefs1018"></defs><path id="SvgjsPath1019" d="M952.021 3943.41C952.0237 3943.44575 952.0251599999999 3943.47131 952.02589 3943.4882199999997C952.02719 3943.37079 952.05987 3942.9042 952.415 3942.9399999999996C952.62 3942.95 953.949 3942.9199999999996 953.953 3942.8899999999994C954.0219999999999 3942.3399999999992 953.978 3941.9499999999994 955.632 3941.9699999999993C956.742 3941.9899999999993 956.9609999999999 3942.1999999999994 956.9659999999999 3942.5599999999995C956.9779999999998 3943.3299999999995 958.185 3942.8799999999997 958.5079999999999 3942.9099999999994C958.8309999999999 3942.9499999999994 958.9809999999999 3943.0299999999993 958.9879999999999 3943.3299999999995C958.996 3943.6199999999994 959.007 3944.2899999999995 958.9939999999999 3944.5899999999997C958.9809999999999 3944.8999999999996 958.8839999999999 3944.95 958.3759999999999 3944.9999999999995C957.8679999999998 3945.0499999999997 951.7269999999999 3944.9699999999993 952.3259999999999 3944.9499999999994C952.925 3944.9299999999994 951.935 3945.0099999999993 951.9509999999999 3944.5199999999995C951.9669999999999 3944.0299999999997 951.9899999999999 3942.9999999999995 952.021 3943.4099999999994ZM961.271 3942.95C961.848 3942.95 961.962 3943.66 961.971 3944.45C961.981 3945.23 962.045 3955.16 962.03 3956.18C962.014 3957.19 960.005 3957.1 960.723 3957.06C961.4399999999999 3957.0099999999998 950.531 3957.08 949.8839999999999 3957.06C949.2369999999999 3957.04 948.8619999999999 3956.88 948.8919999999999 3956.07C948.9229999999999 3955.25 948.9749999999999 3944.46 949.002 3943.65C949.016 3943.23531 949.4462199999999 3943.05976 949.7544499999999 3942.9896400000002C950.0124299999999 3943.0262100000004 951.0429999999999 3943.0800000000004 951.0429999999999 3943.0800000000004L951.0549999999998 3944.0200000000004C951.0549999999998 3944.0200000000004 950.7209999999999 3943.9800000000005 950.2599999999999 3943.9800000000005C949.7989999999999 3943.9700000000003 949.9269999999999 3944.1000000000004 949.9699999999999 3944.5600000000004C950.0129999999999 3945.03 950.069 3954.8300000000004 950.0009999999999 3955.4100000000003C949.9339999999999 3955.9800000000005 950.9289999999999 3955.9100000000003 950.4159999999998 3955.9200000000005C949.9039999999999 3955.9200000000005 960.0679999999999 3956.0500000000006 960.5899999999998 3955.9400000000005C961.1119999999999 3955.8300000000004 961.0139999999998 3955.6300000000006 961.0419999999998 3955.2200000000007C961.0689999999998 3954.8000000000006 961.0349999999999 3945.310000000001 961.0719999999998 3944.8200000000006C961.1079999999997 3944.3200000000006 960.8669999999997 3944.120000000001 960.5859999999998 3944.100000000001C960.3049999999998 3944.080000000001 959.9399999999998 3944.0300000000007 959.9399999999998 3944.0300000000007L959.9859999999999 3942.9600000000005C959.9859999999999 3942.9600000000005 960.6939999999998 3942.9500000000003 961.2709999999998 3942.9500000000003ZM949.866 3942.96C949.88945 3942.95937 949.91057 3942.9586600000002 949.92948 3942.95792C949.88012 3942.96458 949.82005 3942.97473 949.75446 3942.98965C949.66068 3942.97636 949.66899 3942.96534 949.86601 3942.96001ZM949.92948 3942.95792C950.0814300000001 3942.9374199999997 950.13187 3942.9499499999997 949.92948 3942.95792ZM954.871 3943.51C954.871 3943.8700000000003 955.159 3944.15 955.514 3944.15C955.87 3944.15 956.158 3943.87 956.158 3943.51C956.158 3943.1600000000003 955.87 3942.8700000000003 955.514 3942.8700000000003C955.159 3942.8700000000003 954.871 3943.1600000000003 954.871 3943.51ZM951 3955V3946H960V3955Z " fill="#dde5f5" fill-opacity="1" transform="matrix(1,0,0,1,-948,-3941)"></path></svg>