<svg id="SvgjsSvg1020" xmlns="http://www.w3.org/2000/svg" version="1.1" xmlns:xlink="http://www.w3.org/1999/xlink" xmlns:svgjs="http://svgjs.com/svgjs" width="16" height="15" viewBox="0 0 16 15"><title>Адрес</title><desc>Created with Avocode.</desc><defs id="SvgjsDefs1021"></defs><path id="SvgjsPath1022" d="M963 3899.83C963 3901.21 960.825 3901.97 955.071 3901.97C950.692 3901.97 947.143 3901.52 947.143 3900.14C947.143 3899.1758299999997 948.87543 3898.4508499999997 951.41297 3898.10148L952.02397 3898.83092C948.8512 3899.10516 949.11 3899.5967699999997 949.11 3899.98C949.11 3900.47 949.559 3900.87 955.143 3900.84C960.2090000000001 3900.81 961.552 3900.34 961.552 3899.86C961.552 3899.49677 960.5376200000001 3898.94122 958.15408 3898.73509L958.505 3898.0122C961.16445 3898.25902 963 3898.83768 963 3899.83ZM957.04988 3898.6698C956.37424 3899.55171 955.6546500000001 3900.1400000000003 954.996 3900.1400000000003C954.36343 3900.1400000000003 953.6756399999999 3899.5904900000005 953.02486 3898.7588900000005C953.02346 3898.7589700000003 953.02206 3898.7590600000003 953.02066 3898.7591400000006L952.40619 3897.8693800000005C951.19644 3895.9352700000004 950.244 3893.2504100000006 950.244 3891.8300000000004C950.244 3889.2700000000004 952.488 3887.1900000000005 955.0500000000001 3887.1900000000005C957.6120000000001 3887.1900000000005 959.7560000000001 3889.2700000000004 959.7560000000001 3891.8300000000004C959.7560000000001 3893.0960800000003 959.04533 3895.26009 958.0723500000001 3897.06242L958.0620000000001 3897.0600000000004L957.0976800000001 3898.67149C957.0817900000001 3898.6709100000003 957.06586 3898.6703500000003 957.04988 3898.6698ZM957.488 3891.05C957.4390000000001 3890.9900000000002 957.3870000000001 3890.9700000000003 957.345 3890.96C957.302 3890.95 957.263 3890.94 957.221 3890.94H955.796C955.783 3890.94 955.7520000000001 3890.93 955.7270000000001 3890.91C955.7010000000001 3890.89 955.6850000000001 3890.87 955.6820000000001 3890.85L955.3150000000002 3889.5699999999997C955.3010000000002 3889.5199999999995 955.2810000000002 3889.4799999999996 955.2550000000002 3889.43C955.2040000000002 3889.33 955.0840000000002 3889.27 954.9700000000003 3889.2599999999998C954.8580000000003 3889.2599999999998 954.7720000000003 3889.31 954.6970000000002 3889.43C954.6680000000002 3889.48 954.6510000000002 3889.52 954.6380000000003 3889.5699999999997L954.3290000000003 3890.85C954.3260000000002 3890.87 954.3090000000003 3890.89 954.2840000000003 3890.91C954.2580000000004 3890.93 954.2280000000003 3890.94 954.2150000000004 3890.94H952.7890000000003C952.7340000000004 3890.94 952.6830000000003 3890.9500000000003 952.6210000000003 3890.9700000000003C952.5900000000004 3890.9900000000002 952.5550000000003 3891.01 952.5230000000004 3891.05C952.4900000000004 3891.09 952.4690000000004 3891.1400000000003 952.4700000000004 3891.2000000000003C952.4710000000003 3891.28 952.5070000000004 3891.3300000000004 952.5360000000004 3891.3700000000003C952.5670000000003 3891.4000000000005 952.5990000000004 3891.4300000000003 952.6360000000004 3891.4500000000003L953.7920000000004 3892.2100000000005C953.8120000000004 3892.2200000000007 953.8490000000004 3892.2800000000007 953.8450000000004 3892.3300000000004C953.8450000000004 3892.3400000000006 953.8440000000004 3892.3500000000004 953.8420000000003 3892.3500000000004L953.3190000000003 3893.8800000000006C953.3060000000003 3893.9300000000007 953.2970000000003 3893.9700000000007 953.2960000000003 3894.0200000000004C953.2970000000003 3894.0600000000004 953.3020000000002 3894.1100000000006 953.3440000000003 3894.1700000000005C953.3850000000003 3894.2400000000007 953.5280000000002 3894.2800000000007 953.5900000000003 3894.2700000000004C953.7070000000002 3894.2700000000004 953.7560000000003 3894.2200000000003 953.8140000000003 3894.1800000000003L954.9550000000003 3893.32C954.9640000000003 3893.31 954.9870000000003 3893.3 955.0130000000003 3893.3C955.0390000000002 3893.3 955.1300000000002 3893.38 955.1400000000002 3893.3900000000003L956.3230000000002 3894.1800000000003C956.3820000000002 3894.2300000000005 956.4300000000002 3894.2700000000004 956.5450000000002 3894.28C956.5470000000001 3894.28 956.5500000000002 3894.28 956.5530000000002 3894.28C956.6120000000002 3894.28 956.7410000000002 3894.2400000000002 956.7820000000003 3894.1800000000003C956.8250000000003 3894.1200000000003 956.8250000000003 3894.0600000000004 956.8250000000003 3894.0200000000004C956.8250000000003 3893.9700000000003 956.8140000000003 3893.9300000000003 956.7990000000003 3893.8800000000006L956.2220000000003 3892.3400000000006C956.2200000000004 3892.3300000000004 956.2180000000003 3892.3200000000006 956.2180000000003 3892.3100000000004C956.2150000000003 3892.2700000000004 956.2480000000003 3892.2200000000003 956.2670000000003 3892.2100000000005L957.3750000000002 3891.4500000000003C957.4110000000002 3891.4300000000003 957.4440000000002 3891.4 957.4740000000003 3891.3700000000003C957.5030000000003 3891.3300000000004 957.5390000000003 3891.28 957.5410000000003 3891.2000000000003C957.5420000000003 3891.1400000000003 957.5200000000003 3891.09 957.4880000000003 3891.05Z " fill="#dde5f5" fill-opacity="1" transform="matrix(1,0,0,1,-947,-3887)"></path></svg>