<svg id="SvgjsSvg1054" xmlns="http://www.w3.org/2000/svg" version="1.1" xmlns:xlink="http://www.w3.org/1999/xlink" xmlns:svgjs="http://svgjs.com/svgjs" width="17" height="17" viewBox="0 0 17 17"><title>Почта копия</title><desc>Created with Avocode.</desc><defs id="SvgjsDefs1055"></defs><path id="SvgjsPath1056" d="M987.463 562.598L987.4699999999999 562.597L986.05 561.447L980.482 557.164C980.338 557.053 980.1659999999999 556.997 979.9939999999999 556.997C979.8209999999999 556.997 979.6489999999999 557.053 979.5059999999999 557.164L973.9499999999998 561.448C973.9369999999998 561.457 973.9269999999998 561.4689999999999 973.9149999999998 561.4789999999999V561.477L972.5319999999998 562.595H972.5459999999998C972.2179999999998 562.839 972.0019999999998 563.225 972.0019999999998 563.6650000000001V571.6630000000001C972.0019999999998 572.4010000000002 972.5999999999998 572.9980000000002 973.3379999999999 572.9980000000002H986.6679999999999C987.406 572.9980000000002 988.0019999999998 572.4010000000002 988.0019999999998 571.6630000000001V563.6650000000001C988.0019999999998 563.2270000000001 987.7889999999999 562.8410000000001 987.4629999999999 562.5980000000001ZM987.299 572.567C987.2479999999999 572.615 987.169 572.614 987.1179999999999 572.567L985.545 571.109C985.536 571.099 985.5269999999999 571.089 985.516 571.0790000000001L980.5419999999999 566.2810000000001C980.3889999999999 566.138 980.1929999999999 566.067 979.997 566.067C979.8009999999999 566.067 979.606 566.139 979.453 566.2810000000001L974.486 571.0790000000001C974.47 571.0930000000001 974.458 571.109 974.443 571.1250000000001L972.8969999999999 572.5580000000001C972.843 572.6080000000001 972.7589999999999 572.6040000000002 972.709 572.5500000000001C972.661 572.5000000000001 972.6619999999999 572.4200000000001 972.709 572.369L977.188 567.534L972.845 563.629C972.792 563.578 972.7900000000001 563.494 972.841 563.441C972.863 563.418 972.892 563.4060000000001 972.922 563.403L972.919 563.4H987.088C987.127 563.4 987.165 563.414 987.1909999999999 563.447C987.2359999999999 563.501 987.2299999999999 563.58 987.1809999999999 563.628L982.785 567.5840000000001C982.799 567.5730000000001 982.814 567.562 982.831 567.5480000000001L987.307 572.3780000000002C987.357 572.4330000000001 987.354 572.5170000000002 987.299 572.5670000000001Z " fill="#43b9f6" fill-opacity="1" transform="matrix(1,0,0,1,-972,-556)"></path></svg>