<svg id="SvgjsSvg1014" xmlns="http://www.w3.org/2000/svg" version="1.1" xmlns:xlink="http://www.w3.org/1999/xlink" xmlns:svgjs="http://svgjs.com/svgjs" width="17" height="16" viewBox="0 0 17 16"><title>Почта</title><desc>Created with Avocode.</desc><defs id="SvgjsDefs1015"></defs><path id="SvgjsPath1016" d="M658.463 4009.6H658.4699999999999L657.05 4008.45L651.482 4004.16C651.338 4004.0499999999997 651.1659999999999 4004 650.9939999999999 4004C650.8209999999999 4004 650.6489999999999 4004.05 650.5059999999999 4004.16L644.9499999999998 4008.45C644.9369999999998 4008.46 644.9269999999998 4008.47 644.9149999999998 4008.48L643.5319999999998 4009.59L643.5459999999998 4009.6000000000004C643.2179999999998 4009.84 643.0019999999998 4010.2300000000005 643.0019999999998 4010.6700000000005V4018.6600000000003C643.0019999999998 4019.4 643.5999999999998 4020.0000000000005 644.3379999999999 4020.0000000000005H657.6679999999999C658.406 4020.0000000000005 659.0019999999998 4019.4000000000005 659.0019999999998 4018.6600000000003V4010.6700000000005C659.0019999999998 4010.2300000000005 658.7889999999999 4009.8400000000006 658.4629999999999 4009.6000000000004ZM658.299 4019.57C658.2479999999999 4019.61 658.169 4019.61 658.1179999999999 4019.57L656.545 4018.11C656.536 4018.1 656.5269999999999 4018.09 656.516 4018.08L651.5419999999999 4013.2799999999997C651.3889999999999 4013.14 651.1929999999999 4013.0699999999997 650.997 4013.0699999999997C650.8019999999999 4013.0699999999997 650.606 4013.14 650.453 4013.2799999999997L645.486 4018.08C645.47 4018.09 645.458 4018.11 645.443 4018.13L643.8969999999999 4019.56C643.843 4019.61 643.7589999999999 4019.6 643.709 4019.5499999999997C643.661 4019.4999999999995 643.6619999999999 4019.4199999999996 643.709 4019.37L648.188 4014.5299999999997L643.845 4010.6299999999997C643.792 4010.5799999999995 643.7900000000001 4010.49 643.841 4010.4399999999996C643.863 4010.4199999999996 643.892 4010.4099999999994 643.922 4010.3999999999996H658.0880000000001C658.1270000000001 4010.3999999999996 658.1650000000001 4010.41 658.191 4010.45C658.236 4010.5 658.23 4010.58 658.181 4010.6299999999997L653.7850000000001 4014.5799999999995C653.7990000000001 4014.5699999999993 653.8140000000001 4014.5599999999995 653.8310000000001 4014.5499999999993L658.3070000000001 4019.379999999999C658.3570000000001 4019.4299999999994 658.3540000000002 4019.519999999999 658.2990000000001 4019.5699999999993Z " fill="#dde5f5" fill-opacity="1" transform="matrix(1,0,0,1,-643,-4004)"></path></svg>