<svg xmlns="http://www.w3.org/2000/svg" width="15" height="15" viewBox="0 0 15 15"><title>Телефон копия</title><path d="M12.02 13.116s-.675 1.15-2.227 1.388c-1.551.237-2.938.052-4.707-1.338C3.318 11.776.759 8.554.611 6.558.463 4.563.24 2.582 2.77 1.546l.724 3.73-.831.2s-1.026.346.27 2.042c1.297 1.697 3.87 4.81 3.87 4.81s.89 1.364 1.753-.55zm.551-2.069l-.073 1.107-3.351-1.305.79-.851zM5.379 4.411l-1.088.696-.641-3.63 1.189.217zM6.995 3.35v1.342c.871 0 1.689.34 2.304.957.608.612.945 1.421.954 2.286h1.341C11.576 5.403 9.52 3.35 6.995 3.35zM7.06.722v1.215c3.09 0 5.918 2.832 5.937 5.935h1.217C14.195 4.029 10.89.722 7.06.722zm.863 5.352a.93.93 0 1 0 0 1.859.93.93 0 0 0 0-1.859z" fill="#fff"/></svg>