<svg xmlns="http://www.w3.org/2000/svg" width="15" height="15" viewBox="0 0 15 15"><title>Телефон</title><path d="M12.02 13.115s-.675 1.151-2.227 1.388c-1.551.238-2.938.051-4.707-1.339C3.318 11.775.759 8.554.611 6.557.463 4.562.24 2.581 2.77 1.546l.724 3.728-.831.201s-1.026.346.27 2.042c1.297 1.696 3.87 4.809 3.87 4.809s.89 1.365 1.753-.548zm.551-2.069l-.073 1.107-3.351-1.306.79-.85zM5.379 4.411l-1.088.695-.641-3.629 1.189.217zm1.616-1.063V4.69c.871 0 1.689.339 2.304.958.608.611.945 1.421.954 2.285h1.341c-.018-2.531-2.074-4.585-4.599-4.585zM7.06.72v1.217c3.09 0 5.918 2.831 5.937 5.933h1.217C14.195 4.028 10.89.72 7.06.72zm.863 5.354a.928.928 0 1 0-.002 1.856.928.928 0 0 0 .002-1.856z" fill="#31aeee"/></svg>