<svg xmlns="http://www.w3.org/2000/svg" width="15" height="17" viewBox="0 0 15 17"><title>к форме заказа:</title><path d="M4.021 2.41l.005.078c.001-.117.034-.584.389-.548.205.01 1.534-.02 1.538-.05.069-.55.025-.94 1.679-.92 1.11.02 1.329.23 1.334.59.012.77 1.219.32 1.542.35.323.04.473.12.48.42.008.29.019.96.006 1.26-.013.31-.11.36-.618.41-.508.05-6.649-.03-6.05-.05.599-.02-.391.06-.375-.43.016-.49.039-1.52.07-1.11zm9.25-.46c.577 0 .691.71.7 1.5.01.78.074 10.71.059 11.73-.016 1.01-2.025.92-1.307.88.717-.05-10.192.02-10.839 0-.647-.02-1.022-.18-.992-.99.031-.82.083-11.61.11-12.42.014-.415.444-.59.752-.66.258.036 1.289.09 1.289.09l.012.94s-.334-.04-.795-.04c-.461-.01-.333.12-.29.58.043.47.099 10.27.031 10.85-.067.57.928.5.415.51-.512 0 9.652.13 10.174.02.522-.11.424-.31.452-.72.027-.42-.007-9.91.03-10.4.036-.5-.205-.7-.486-.72a12.12 12.12 0 0 1-.646-.07l.046-1.07s.708-.01 1.285-.01zm-11.405.01l.063-.002a2.18 2.18 0 0 0-.175.032c-.093-.014-.085-.025.112-.03zm.063-.002c.152-.02.203-.008 0 0zm4.942.552c0 .36.288.64.643.64.356 0 .644-.28.644-.64a.644.644 0 0 0-1.287 0zM3 14V5h9v9z" fill="#dde5f5"/></svg>