<svg xmlns="http://www.w3.org/2000/svg" width="16" height="15" viewBox="0 0 16 15"><title>Адрес</title><path d="M16 12.83c0 1.38-2.175 2.14-7.929 2.14-4.379 0-7.928-.45-7.928-1.83 0-.964 1.732-1.69 4.27-2.039l.611.73c-3.173.274-2.914.766-2.914 1.149 0 .49.449.89 6.033.86 5.066-.03 6.409-.5 6.409-.98 0-.363-1.014-.919-3.398-1.125l.351-.723c2.66.247 4.495.826 4.495 1.818zm-5.95-1.16c-.676.882-1.395 1.47-2.054 1.47-.633 0-1.32-.55-1.971-1.381H6.02l-.615-.89C4.196 8.935 3.244 6.25 3.244 4.83 3.244 2.27 5.488.19 8.05.19s4.706 2.08 4.706 4.64c0 1.266-.71 3.43-1.684 5.232l-.01-.002-.964 1.611-.048-.001zm.438-7.62a.249.249 0 0 0-.143-.09c-.043-.01-.082-.02-.124-.02H8.796a.137.137 0 0 1-.069-.03c-.026-.02-.042-.04-.045-.06l-.367-1.28a.703.703 0 0 0-.06-.14c-.051-.1-.171-.16-.285-.17-.112 0-.198.05-.273.17a.524.524 0 0 0-.059.14l-.309 1.28c-.003.02-.02.04-.045.06a.14.14 0 0 1-.069.03H5.789a.528.528 0 0 0-.168.03c-.031.02-.066.04-.098.08a.225.225 0 0 0-.053.15c.001.08.037.13.066.17.031.03.063.06.1.08l1.156.76c.02.01.057.07.053.12 0 .01-.001.02-.003.02l-.523 1.53a.569.569 0 0 0-.023.14c.001.04.006.09.048.15.041.07.184.11.246.1.117 0 .166-.05.224-.09l1.141-.86c.009-.01.032-.02.058-.02.026 0 .117.08.127.09l1.183.79a.34.34 0 0 0 .222.1h.008c.059 0 .188-.04.229-.1.043-.06.043-.12.043-.16 0-.05-.011-.09-.026-.14l-.577-1.54c-.002-.01-.004-.02-.004-.03-.003-.04.03-.09.049-.1l1.108-.76a.47.47 0 0 0 .099-.08.284.284 0 0 0 .067-.17.23.23 0 0 0-.053-.15z" fill="#dde5f5"/></svg>