<svg xmlns="http://www.w3.org/2000/svg" width="17" height="16" viewBox="0 0 17 16"><title>Почта</title><path d="M15.463 5.6h.007l-1.42-1.15L8.482.16A.797.797 0 0 0 7.994 0a.793.793 0 0 0-.488.16L1.95 4.45l-.035.03L.532 5.59l.014.01c-.328.24-.544.63-.544 1.07v7.99C.002 15.4.6 16 1.338 16h13.33c.738 0 1.334-.6 1.334-1.34V6.67c0-.44-.213-.83-.539-1.07zm-.164 9.97a.152.152 0 0 1-.181 0l-1.573-1.46a.404.404 0 0 0-.029-.03l-4.974-4.8a.806.806 0 0 0-.545-.21.805.805 0 0 0-.544.21l-4.967 4.8c-.016.01-.028.03-.043.05L.897 15.56c-.054.05-.138.04-.188-.01a.131.131 0 0 1 0-.18l4.479-4.84-4.343-3.9a.135.135 0 0 1-.004-.19.22.22 0 0 1 .081-.04h14.166c.039 0 .077.01.103.05.045.05.039.13-.01.18l-4.396 3.95a.613.613 0 0 1 .046-.03l4.476 4.83c.05.05.047.14-.008.19z" fill="#dde5f5"/></svg>